<svg width="241" height="289" viewBox="0 0 241 289" fill="none" xmlns="http://www.w3.org/2000/svg">
<path d="M194.51 27.43C247.794 66.314 256.57 137.394 214.11 186.192C171.65 234.99 42.34 266.523 40.753 204.144C39.153 141.366 3.88299 82.535 21.153 45.382C47.837 -12.029 141.226 -11.454 194.51 27.43Z" fill="#AEB9F0"/>
<path d="M66.687 289C101.961 289 130.556 284.234 130.556 278.355C130.556 272.476 101.961 267.71 66.687 267.71C31.4131 267.71 2.81799 272.476 2.81799 278.355C2.81799 284.234 31.4131 289 66.687 289Z" fill="#F4F4F4"/>
<path d="M45.841 238.577C45.841 255.839 35.579 261.866 22.921 261.866C10.263 261.866 0.00100708 255.839 0.00100708 238.577C0.00100708 221.315 22.921 199.356 22.921 199.356C22.921 199.356 45.841 221.316 45.841 238.577Z" fill="#28B44E"/>
<path d="M22.085 259.225L22.32 244.779L32.089 226.907L22.357 242.513L22.463 236.013L29.196 223.083L22.496 234.294L22.686 222.611L29.896 212.317L22.716 220.774L22.834 199.352L22.089 227.711L22.15 226.541L14.82 215.321L22.032 228.787L21.349 241.835L21.329 241.489L12.878 229.682L21.303 242.713L21.217 244.345L21.202 244.369L21.209 244.503L19.476 277.603H21.791L22.069 260.503L30.469 247.503L22.085 259.225Z" fill="#876C36"/>
<rect x="70.657" y="35.321" width="112.023" height="227.324" rx="16" fill="#324B67"/>
<path d="M166.88 41.236H154.03V42.779C154.028 44.7206 153.255 46.5821 151.881 47.9536C150.507 49.3252 148.644 50.0944 146.702 50.092H105.834C103.892 50.0944 102.029 49.3252 100.655 47.9536C99.2806 46.5821 98.5076 44.7206 98.506 42.779V41.236H86.476C84.1177 41.2333 81.855 42.1678 80.1858 43.8338C78.5167 45.4998 77.5778 47.7607 77.576 50.119V247.836C77.5778 250.194 78.5167 252.455 80.1858 254.121C81.855 255.787 84.1177 256.722 86.476 256.719H166.876C169.234 256.722 171.497 255.787 173.166 254.121C174.835 252.455 175.774 250.194 175.776 247.836V50.136C175.779 47.7748 174.842 45.5095 173.172 43.8398C171.503 42.1702 169.237 41.2333 166.876 41.236H166.88Z" fill="white"/>
<rect x="115.878" y="42.072" width="15.643" height="2" rx="1" fill="white"/>
<path d="M134.867 44.072C135.419 44.072 135.867 43.6243 135.867 43.072C135.867 42.5197 135.419 42.072 134.867 42.072C134.315 42.072 133.867 42.5197 133.867 43.072C133.867 43.6243 134.315 44.072 134.867 44.072Z" fill="white"/>
<path d="M101.186 100.931C105.515 100.931 109.024 97.4218 109.024 93.093C109.024 88.7642 105.515 85.255 101.186 85.255C96.8572 85.255 93.348 88.7642 93.348 93.093C93.348 97.4218 96.8572 100.931 101.186 100.931Z" fill="#42B7B3"/>
<rect x="116.619" y="87.213" width="13.962" height="2.449" rx="1.2245" fill="#A5A5A5"/>
<rect x="116.619" y="91.867" width="38.46" height="2.449" rx="1.2245" fill="#A5A5A5"/>
<rect x="116.619" y="96.522" width="38.46" height="2.449" rx="1.2245" fill="#A5A5A5"/>
<path d="M101.186 114.756C105.515 114.756 109.024 118.265 109.024 122.594C109.024 126.923 105.515 130.432 101.186 130.432C96.8572 130.432 93.348 126.923 93.348 122.594C93.348 118.265 96.8572 114.756 101.186 114.756Z" fill="#CBCBCB"/>
<rect x="116.619" y="116.714" width="13.962" height="2.449" rx="1.2245" fill="#CBCBCB"/>
<rect x="116.619" y="121.368" width="38.46" height="2.449" rx="1.2245" fill="#CBCBCB"/>
<rect x="116.619" y="126.023" width="38.46" height="2.449" rx="1.2245" fill="#CBCBCB"/>
<path d="M101.186 159.932C105.515 159.932 109.024 156.423 109.024 152.094C109.024 147.765 105.515 144.256 101.186 144.256C96.8572 144.256 93.348 147.765 93.348 152.094C93.348 156.423 96.8572 159.932 101.186 159.932Z" fill="#CBCBCB"/>
<rect x="116.619" y="146.214" width="13.962" height="2.449" rx="1.2245" fill="#CBCBCB"/>
<rect x="116.619" y="150.868" width="38.46" height="2.449" rx="1.2245" fill="#CBCBCB"/>
<rect x="116.619" y="155.523" width="38.46" height="2.449" rx="1.2245" fill="#CBCBCB"/>
<path d="M101.186 189.432C105.515 189.432 109.024 185.923 109.024 181.594C109.024 177.265 105.515 173.756 101.186 173.756C96.8572 173.756 93.348 177.265 93.348 181.594C93.348 185.923 96.8572 189.432 101.186 189.432Z" fill="#CBCBCB"/>
<rect x="116.619" y="175.714" width="13.962" height="2.449" rx="1.2245" fill="#CBCBCB"/>
<rect x="116.619" y="180.368" width="38.46" height="2.449" rx="1.2245" fill="#CBCBCB"/>
<rect x="116.619" y="185.023" width="38.46" height="2.449" rx="1.2245" fill="#CBCBCB"/>
<path d="M101.186 218.932C105.515 218.932 109.024 215.423 109.024 211.094C109.024 206.765 105.515 203.256 101.186 203.256C96.8572 203.256 93.348 206.765 93.348 211.094C93.348 215.423 96.8572 218.932 101.186 218.932Z" fill="#CBCBCB"/>
<rect x="116.619" y="205.214" width="13.962" height="2.449" rx="1.2245" fill="#CBCBCB"/>
<rect x="116.619" y="209.868" width="38.46" height="2.449" rx="1.2245" fill="#CBCBCB"/>
<rect x="116.619" y="214.523" width="38.46" height="2.449" rx="1.2245" fill="#CBCBCB"/>
<rect x="62.3" y="68.75" width="128.469" height="40.469" rx="3" fill="white"/>
<rect x="110.539" y="81.334" width="17.603" height="3.089" rx="1.544" fill="#42CE2C"/>
<rect x="110.499" y="87.195" width="53.385" height="3.089" rx="1.544" fill="#42CE2C"/>
<rect x="110.499" y="93.057" width="53.385" height="3.089" rx="1.544" fill="#42CE2C"/>
<path d="M95.031 98.627C100.489 98.627 104.913 94.2027 104.913 88.745C104.913 83.2873 100.489 78.863 95.031 78.863C89.5733 78.863 85.149 83.2873 85.149 88.745C85.149 94.2027 89.5733 98.627 95.031 98.627Z" fill="#42CE2C"/>
<path d="M90.728 89.393L93.243 92.093L99.858 84.993" stroke="white" stroke-width="3" stroke-linecap="round" stroke-linejoin="round"/>
<path d="M56.036 121.734C61.3026 121.734 65.572 117.465 65.572 112.198C65.572 106.931 61.3026 102.662 56.036 102.662C50.7694 102.662 46.5 106.931 46.5 112.198C46.5 117.465 50.7694 121.734 56.036 121.734Z" fill="#CFACB1"/>
<path d="M49.866 116.687C49.866 116.687 49.866 126.787 48.183 127.906C46.5 129.025 61.646 130.15 61.646 130.15V117.25L49.866 116.687Z" fill="#CFACB1"/>
<path d="M31.354 172.78C31.354 172.78 42.012 185.121 44.254 185.121C46.496 185.121 48.742 176.707 48.742 176.707L38.084 168.854L31.354 172.78Z" fill="#CFACB1"/>
<path d="M48.183 123.977L46.5 127.343C46.5 127.343 28.55 132.952 27.989 144.732L43.134 169.974C43.134 169.974 44.256 171.657 43.695 172.774C43.134 173.891 42.573 173.335 43.134 175.018C43.695 176.701 43.695 176.14 43.695 177.262C43.695 178.384 42.012 177.823 43.695 178.384C45.378 178.945 43.134 178.384 49.304 180.067C55.474 181.75 73.986 181.189 73.986 181.189L70.62 148.654L73.986 141.923L69.498 128.46C69.498 128.46 66.698 127.899 65.01 129.021C63.322 130.143 61.083 127.899 61.083 127.899C61.083 127.899 58.28 123.977 48.183 123.977Z" fill="#575A89"/>
<path d="M66.694 129.026L69.494 128.465C69.494 128.465 80.713 125.099 81.274 122.295C81.835 119.491 84.64 116.125 84.64 116.125C84.64 116.125 93.615 113.881 93.054 121.173C92.493 128.465 90.254 130.709 89.127 131.831C88 132.953 75.665 141.931 73.421 141.931C71.177 141.931 66.694 129.026 66.694 129.026Z" fill="#575A89"/>
<path d="M29.111 142.489L27.989 144.733L27.428 164.927C27.428 164.927 24.062 167.171 25.745 168.293C27.428 169.415 31.354 174.463 32.476 174.463C33.598 174.463 39.768 171.663 39.768 170.536C39.768 169.409 38.646 159.317 38.646 159.317L29.111 142.489Z" fill="#575A89"/>
<path d="M49.866 271.505C49.866 271.505 49.866 277.114 49.305 278.236C48.744 279.358 47.622 284.967 50.988 284.967C52.916 284.995 54.8279 284.612 56.597 283.845C56.597 283.845 56.597 280.479 58.28 279.918C59.963 279.357 63.889 274.87 62.207 273.748C60.6034 272.833 58.9123 272.082 57.159 271.504L49.866 271.505Z" fill="#2F2E41"/>
<path d="M73.986 274.309C73.986 274.309 70.62 282.162 73.986 282.723C77.352 283.284 81.839 282.723 82.4 281.601C82.961 280.479 84.083 279.357 85.2 279.918C86.317 280.479 95.858 273.747 92.492 272.626C90.49 271.955 88.324 271.955 86.322 272.626L82.956 270.943L73.986 274.309Z" fill="#2F2E41"/>
<path d="M57.241 122.708C57.4001 122.698 57.5553 122.655 57.697 122.582C57.9252 122.398 58.0767 122.136 58.122 121.846L59.268 117.787C59.703 116.247 60.401 114.448 61.968 114.123C62.2963 114.101 62.6172 114.015 62.913 113.871C63.2604 113.544 63.4478 113.082 63.426 112.605L63.917 107.359C64.1544 105.949 64.0737 104.504 63.681 103.13C62.8179 101.168 61.0028 99.7915 58.881 99.489C56.7885 99.2163 54.6613 99.4379 52.67 100.136C49.617 101.051 46.455 102.625 45.128 105.524C44.4552 107.251 44.2105 109.116 44.415 110.958C44.4376 112.864 44.8607 114.745 45.657 116.477C46.1417 117.35 46.7043 118.177 47.338 118.948C48.285 120.174 49.446 122.57 51.013 123.027C52.783 123.543 55.451 122.938 57.241 122.708Z" fill="#2F2E41"/>
<path d="M75.108 180.632L44.817 177.832C44.817 177.832 40.89 196.343 42.017 203.632C43.144 210.921 43.7 231.679 43.7 231.679C43.7 231.679 44.822 269.262 46.5 271.506C48.178 273.75 53.792 273.189 55.475 274.306C57.158 275.423 59.963 272.062 59.963 271.506C59.963 270.95 56.597 270.945 58.28 267.579C59.963 264.213 53.792 254.679 55.48 250.19C57.168 245.701 59.968 239.532 58.28 237.29C56.592 235.048 59.402 206.438 59.402 206.438C59.402 206.438 73.42 226.63 73.42 235.605C73.42 244.58 72.298 265.335 71.737 267.579C71.176 269.823 70.615 270.379 71.737 272.066C72.859 273.753 73.981 275.432 73.42 275.993C72.859 276.554 83.52 275.993 83.52 272.627C83.52 269.261 82.959 269.261 84.081 266.457C85.203 263.653 85.764 229.996 85.764 229.996L75.108 180.632Z" fill="#2F2E41"/>
<path d="M84.644 117.246L86.327 105.466C86.327 105.466 87.449 89.199 90.815 93.125C94.181 97.051 91.937 106.025 91.937 106.025C91.937 106.025 93.62 118.925 91.937 120.61C90.254 122.295 84.644 117.246 84.644 117.246Z" fill="#CFACB1"/>
</svg>
